<svg width="132" height="127" viewBox="0 0 132 127" fill="none" xmlns="http://www.w3.org/2000/svg">
<g clip-path="url(#clip0)">
<path d="M0.754181 125.743L130.753 126.256L131.246 1.25671L76.2462 1.03994C76.2462 1.03994 75.5671 10.5373 66.2089 10.5005C56.8506 10.4636 56.2464 0.961118 56.2464 0.961118L1.24683 0.744353L0.754181 125.743Z" fill="#E457E7"/>
<path d="M117.073 96.7241L117.399 13.9153" stroke="white"/>
<path d="M97.0139 115.185L97.4133 13.8365" stroke="white"/>
<path d="M103.7 109.031L104.075 13.8628" stroke="white"/>
<path d="M110.386 102.878L110.737 13.8889" stroke="white"/>
<path d="M15.8773 114.33L97.511 114.652" stroke="white"/>
<path d="M35.4113 95.9023L117.575 96.2261" stroke="white"/>
<path d="M28.7247 102.056L110.888 102.38" stroke="white"/>
<path d="M22.4825 108.211L104.202 108.533" stroke="white"/>
<path d="M35.8007 95.5798L36.1238 13.595" stroke="white"/>
<path d="M16.1683 114.834L16.1382 13.5189" stroke="white"/>
<path d="M21.9805 108.707L22.7997 13.5401" stroke="white"/>
<path d="M29.1151 101.733L29.4625 13.5687" stroke="white"/>
<path d="M76.1399 115.104L76.1103 13.7533" stroke="white"/>
<path d="M55.7101 115.022L56.1096 13.6736" stroke="white"/>
<path d="M61.9279 115.045L62.7563 13.6969" stroke="white"/>
<path d="M69.0339 115.074L69.4333 13.7262" stroke="white"/>
<path d="M10.1926 85.503L42.502 85.6304L42.5387 76.3307L10.2292 76.2034L10.1926 85.503Z" fill="white" stroke="#EEF2F6"/>
<path d="M9.81341 69.022L42.1229 69.1493L42.1595 59.8497L9.85007 59.7223L9.81341 69.022Z" fill="white" stroke="#EEF2F6"/>
<path d="M9.87836 52.5425L42.1878 52.6698L42.2245 43.3702L9.91501 43.2428L9.87836 52.5425Z" fill="white" stroke="#EEF2F6"/>
<path d="M10.3874 36.0648L42.6968 36.1921L42.7335 26.8925L10.424 26.7652L10.3874 36.0648Z" fill="white" stroke="#EEF2F6"/>
<path d="M90.1788 85.3323L122.488 85.4596L122.525 76.16L90.2155 76.0326L90.1788 85.3323Z" fill="white" stroke="#EEF2F6"/>
<path d="M89.7996 68.8512L122.109 68.9785L122.146 59.6789L89.8363 59.5515L89.7996 68.8512Z" fill="white" stroke="#EEF2F6"/>
<path d="M89.8646 52.3717L122.174 52.499L122.211 43.1994L89.9012 43.072L89.8646 52.3717Z" fill="white" stroke="#EEF2F6"/>
<path d="M90.3737 35.8941L122.683 36.0215L122.72 26.7218L90.4103 26.5945L90.3737 35.8941Z" fill="white" stroke="#EEF2F6"/>
<path d="M60.2595 110.508L64.2223 110.524L64.2389 106.317L60.2761 106.302L60.2595 110.508Z" fill="#48DCE6"/>
<path d="M67.3898 104.356L71.3525 104.372L71.3691 100.166L67.4063 100.15L67.3898 104.356Z" fill="#48DCE6"/>
<path d="M54.0174 116.663L57.9802 116.679L57.9967 112.473L54.034 112.457L54.0174 116.663Z" fill="#48DCE5"/>
<path d="M74.5202 98.2044L78.483 98.22L78.4995 94.0138L74.5368 93.9982L74.5202 98.2044Z" fill="#48DCE6"/>
</g>
<defs>
<clipPath id="clip0">
<rect width="130" height="125" fill="white" transform="translate(130.753 126.256) rotate(-179.774)"/>
</clipPath>
</defs>
</svg>
